# xmcd
#
# Track frame offsets:
#	150
#	15793
#	32331
#	44464
#	59551
#	75575
#	97521
#	113885
#	128876
#	142324
#	156345
#	171526
#	186295
#	202101
#	216677
#	228147
#	242894
#	257809
#	272400
#
# Disc length: 3828 seconds
#
# Revision: 1
# Processed by: cddbd v1.5.2PL0 Copyright (c) Steve Scherf et al.
# Submitted via: audiograbber 1.83.01
#
DISCID=100ef213
DTITLE=Various - Promo Only Country March 2013
DYEAR=1900
DGENRE=
TTITLE0=Blake Shelton - Sure Be Cool If You Did
TTITLE1=Little Big Town - Tornado
TTITLE2=Easton Corbin - All Over The Road
TTITLE3=Dierks Bentley - Tip It On Back
TTITLE4=Tyler Farr - Redneck Crazy
TTITLE5=Darius Rucker - Wagon Wheel
TTITLE6=Florida Georgia Line - Get Your Shine On
TTITLE7=Charlie Worsham - Could It Be
TTITLE8=Kristen Kelly - He Loves To Make Me Cry
TTITLE9=Uncle Kracker - Nobody's Sad On Saturday Night
TTITLE10=Jake Owen - Anywhere With You
TTITLE11=Joel Crouse - If You Want Some
TTITLE12=Kip Moore - Hey Pretty Girl
TTITLE13=Eric Church - Like Jesus Does
TTITLE14=Greg Bates - Fill In The Blank
TTITLE15=Blackberry Smoke - Pretty Little Lie
TTITLE16=Parmalee - Carolina
TTITLE17=Lady Antebellum - Downtown
TTITLE18=Kelly Weaver and Terry Sprague - What's Left Of You
EXTD=
EXTT0=
EXTT1=
EXTT2=
EXTT3=
EXTT4=
EXTT5=
EXTT6=
EXTT7=
EXTT8=
EXTT9=
EXTT10=
EXTT11=
EXTT12=
EXTT13=
EXTT14=
EXTT15=
EXTT16=
EXTT17=
EXTT18=
PLAYORDER=
